<?xml version="1.0" encoding="utf-8"?>
<!-- Generator: Adobe Illustrator 23.0.1, SVG Export Plug-In . SVG Version: 6.00 Build 0)  -->
<svg version="1.1" id="Layer_1" xmlns="http://www.w3.org/2000/svg" xmlns:xlink="http://www.w3.org/1999/xlink" x="0px" y="0px"
	 viewBox="0 0 564.7 367.5" style="enable-background:new 0 0 564.7 367.5;" xml:space="preserve">
<style type="text/css">
	.st0{fill:#99CC00;}
</style>
<g>
	<g transform="matrix( 0.39910888671875, 0, 0, 0.39910888671875, 197.05,121.9) ">
		<g>
			<g id="Layer0_0_MEMBER_0_FILL">
				<path class="st0" d="M-136.8,121.2v148.6H52.8L-136.8,121.2 M204.5,58.5V-85.4H29.3L204.5,58.5 M260,77.2c-5,0-9.2,1.8-12.7,5.3
					c-3.5,3.5-5.3,7.8-5.3,12.7c0,5,1.8,9.2,5.3,12.7c3.5,3.5,7.8,5.3,12.7,5.3s9.2-1.8,12.7-5.3c3.5-3.5,5.3-7.8,5.3-12.7
					c0-5-1.8-9.2-5.3-12.7C269.2,78.9,264.9,77.2,260,77.2 M278,3.2c0-5-1.8-9.2-5.3-12.7s-7.8-5.3-12.7-5.3s-9.2,1.8-12.7,5.3
					C243.7-6,242-1.8,242,3.2c0,5,1.8,9.2,5.3,12.7c3.5,3.5,7.8,5.3,12.7,5.3s9.2-1.8,12.7-5.3S278,8.1,278,3.2 M566.2,41.8
					l-16.6-16.5L437.5-81.2v244.9L549.9,57.4L566.2,41.8z"/>
				<path d="M221.5,191.5c0.1-0.3,0.2-0.6,0.2-0.9c2.4-8.7,3.5-17.9,3.5-27.4c0-17.5-4-33.4-11.9-47.7c-7.9-14-20.8-28.1-38.8-42.5
					L-16-83.2l-31.3,2l-24.6,6.9c-21.1,8.5-37.6,21.2-49.4,38.3c-11.7,16.8-17.6,36.6-17.6,59.4c0,8.1,1.2,17,3.7,26.6
					c2.2,9.5,5.3,18.2,9.4,26.1c5.2,9.5,13.7,20.7,25.7,33.7c12.2,13.3,28.7,28.5,49.4,45.7c21.1,18,42.9,35.3,65.5,52l88.2,62.3
					l23.3-1.3l17.2-2.9l14.8-5c20.7-8.4,37-21.3,48.8-38.7C213.8,212.3,218.5,202.3,221.5,191.5 M549.5,25.3V-85.4H427.3
					c-19.2,0-37,3.1-53.4,9.2c-9.7,3.7-18.7,8.4-27.1,13.9c-5.8,4-11.2,8.3-16.3,13c-12.6,11.8-22.2,25.3-28.9,40.7
					c-6.7,15.4-10.1,32.1-10.1,50.1c0,22.7,5.9,43.9,17.6,63.6c11.9,19.8,27.6,35.4,47.1,46.8c7.8,4.4,15.8,8.1,24.1,10.9
					c12.7,4.2,26,6.3,39.8,6.3h129.9V57.4L437.5,163.7V-81.2L549.5,25.3z"/>
			</g>
		</g>
	</g>
	<g>
		<path d="M297.5,233.7c-2.2-2-3.3-4.5-3.3-7.4h2.1c0,2.3,0.9,4.4,2.6,6c1.7,1.7,3.8,2.5,6.3,2.5c2.7,0,5-0.7,6.9-2.1
			c1.9-1.4,2.8-3.1,2.8-5.2c0-1.7-0.8-3.2-2.5-4.4c-1.6-1.2-3.8-1.9-6.6-2.1c-3.4-0.3-6.1-1.2-8.1-2.9c-2-1.6-3-3.6-3-6
			c0-2.3,1-4.4,3.1-6c2.1-1.7,4.6-2.5,7.5-2.5c3.1,0,5.8,0.9,8.1,2.6c2.2,1.7,3.3,3.8,3.3,6.3h-2.1c0-1.9-0.9-3.5-2.7-4.9
			c-1.8-1.4-3.9-2-6.5-2c-2.3,0-4.3,0.6-6,1.9c-1.6,1.2-2.5,2.8-2.5,4.6c0,1.8,0.9,3.3,2.6,4.5c1.7,1.2,4,1.9,6.9,2.2
			c3.3,0.3,5.9,1.2,7.9,2.8c2,1.6,2.9,3.6,2.9,5.9c0,2.6-1.2,4.7-3.5,6.6c-2.3,1.8-5.1,2.7-8.4,2.7
			C302.3,236.8,299.7,235.7,297.5,233.7z"/>
		<path d="M330.3,236v-29.5h-10.8v-2.1h23.9v2.1h-10.9V236H330.3z"/>
		<path d="M344.8,236l12.5-31.6h2.7l12.4,31.6h-2.5l-4.1-10.1h-14.6l-4.1,10.1H344.8z M365.1,223.8l-6.5-17l-6.7,17H365.1z"/>
		<path d="M384.6,236v-29.5h-10.8v-2.1h23.9v2.1h-10.9V236H384.6z"/>
		<path d="M402.1,236v-31.6h20.6v2.1h-18.5v12.2h16.9v2h-16.9v13.4h18.5v2H402.1z"/>
		<path d="M146.2,274.8c-2.8-3.2-4.3-7.1-4.3-11.7c0-4.6,1.4-8.5,4.3-11.8c2.8-3.2,6.2-4.9,10.2-4.9c3.3,0,6.1,0.9,8.4,2.7
			c2.3,1.7,3.7,4.1,4.2,7h-2.1c-0.4-2.2-1.6-4-3.6-5.5c-2-1.5-4.2-2.2-6.9-2.2c-3.4,0-6.3,1.4-8.7,4.3c-2.4,2.9-3.6,6.3-3.6,10.3
			s1.2,7.5,3.6,10.3c2.4,2.8,5.3,4.3,8.7,4.3c2.9,0,5.3-0.9,7.2-2.6c1.9-1.7,3-4,3.3-6.8h2.1c-0.3,3.4-1.6,6.2-3.9,8.3
			c-2.3,2.1-5.2,3.1-8.7,3.1C152.4,279.7,149,278.1,146.2,274.8z"/>
		<path d="M176.3,274.8c-2.6-2.9-3.8-6.9-3.8-11.7c0-5,1.3-9.1,3.8-12.1c2.6-3,6-4.5,10.2-4.5c4.3,0,7.7,1.5,10.2,4.5
			c2.6,3,3.8,7.1,3.8,12.1c0,4.9-1.3,8.8-3.8,11.7c-2.6,3-6,4.4-10.2,4.4C182.3,279.3,178.9,277.8,176.3,274.8z M195.3,273.4
			c2.2-2.6,3.3-6,3.3-10.3c0-4.4-1.1-7.9-3.3-10.6c-2.2-2.7-5.1-4-8.7-4c-3.6,0-6.5,1.3-8.7,4c-2.2,2.7-3.3,6.2-3.3,10.6
			c0,4.3,1.1,7.7,3.3,10.3c2.2,2.6,5.1,3.9,8.7,3.9C190.2,277.3,193.1,276,195.3,273.4z"/>
		<path d="M206.5,278.9v-31.6h3.4l11.6,29l11.5-29h3.4v31.6h-2.1v-29.2l-11.8,29.2h-2l-11.8-29.2v29.2H206.5z"/>
		<path d="M244,278.9v-31.6h3.4l11.6,29l11.5-29h3.4v31.6h-2.1v-29.2l-11.8,29.2h-2l-11.8-29.2v29.2H244z"/>
		<path d="M278.4,278.9l12.5-31.6h2.7l12.4,31.6h-2.5l-4.1-10.1h-14.6l-4.1,10.1H278.4z M298.7,266.7l-6.5-17l-6.7,17H298.7z"/>
		<path d="M310.6,278.9v-31.6h2.9l19.1,29v-29h2.1v31.6h-2.9l-19.1-28.6v28.6H310.6z"/>
		<path d="M342.4,247.3h12.5c3.3,0,6.2,1.5,8.6,4.5c2.3,3,3.5,6.6,3.5,10.9c0,4.5-1.2,8.3-3.5,11.5c-2.4,3.2-5.2,4.7-8.6,4.7h-12.5
			V247.3z M354.9,276.9c2.7,0,5.1-1.4,7-4.2c2-2.8,2.9-6.1,2.9-10c0-3.7-1-6.8-2.9-9.4c-2-2.6-4.3-3.9-7-3.9h-10.4v27.5H354.9z"/>
		<path d="M372.8,278.9v-31.6h20.6v2.1h-18.5v12.2h16.9v2h-16.9v13.4h18.5v2H372.8z"/>
		<path d="M398.2,278.9v-31.6h15.1c2.2,0,4,0.8,5.5,2.5c1.5,1.6,2.3,3.6,2.3,5.9c0,2-0.5,3.8-1.4,5.3c-1,1.5-2.2,2.4-3.6,2.6
			c1.3,0.4,2.4,1.5,3.2,3.4c0.8,1.9,1.2,4.2,1.2,6.8c0,1.5,0,2.6,0.1,3.4c0.1,0.9,0.2,1.5,0.4,1.9H419c-0.4-0.4-0.6-1.2-0.7-2.3
			l-0.2-4.5c0-2.1-0.5-4-1.5-5.5c-1-1.5-2.2-2.2-3.7-2.2h-12.6v14.6H398.2z M412.9,262.3c1.7,0,3.1-0.6,4.3-1.9
			c1.2-1.2,1.8-2.8,1.8-4.6c0-1.8-0.6-3.3-1.8-4.6c-1.2-1.2-2.6-1.9-4.3-1.9h-12.6v13H412.9z"/>
	</g>
</g>
</svg>
